<?xml version="1.0" encoding="UTF-8"?>
<!DOCTYPE svg PUBLIC "-//W3C//DTD SVG 1.0//EN" "http://www.w3.org/TR/2001/REC-SVG-20010904/DTD/svg10.dtd">
<!-- Creator: CorelDRAW -->
<svg xmlns="http://www.w3.org/2000/svg" xml:space="preserve" width="3.0663in" height="1.14781in" version="1.0" style="shape-rendering:geometricPrecision; text-rendering:geometricPrecision; image-rendering:optimizeQuality; fill-rule:evenodd; clip-rule:evenodd"
viewBox="0 0 1027.61 384.66"
 xmlns:xlink="http://www.w3.org/1999/xlink"
 xmlns:xodm="http://www.corel.com/coreldraw/odm/2003">
 <defs>
  <style type="text/css">
   <![CDATA[
    .fil0 {fill:black;fill-rule:nonzero}
    .fil1 {fill:#0047A0;fill-rule:nonzero}
   ]]>
  </style>
 </defs>
 <g id="Layer_x0020_1">
  <metadata id="CorelCorpID_0Corel-Layer"/>
  <g id="_2319382425552">
   <path class="fil0" d="M249.1 269.72l-61.45 0 -6.6 -197.2 -107.64 197.2 -62.69 0 -10.72 -269.72 59.39 0 2.47 188.79 102.14 -188.79 65.3 0 7.01 186.72 97.33 -186.72 58.98 0 -143.52 269.72zm498.06 0l61.86 -269.72 218.58 0 -10.31 45.2 -158.03 0 -14.5 61.03 153.14 0 -10.31 45.21 -153.62 0 -17.46 73.08 171.5 0 -10.31 45.2 -230.54 0zm-239.59 -88.57l55.71 -2.67c0.8,16.17 3.85,27.08 9.15,32.71 8.56,9.21 24.34,13.82 47.42,13.82 19.17,0 33.1,-3.15 41.65,-9.45 8.56,-6.3 12.8,-13.87 12.8,-22.78 0,-7.69 -3.51,-14.24 -10.48,-19.57 -4.91,-3.94 -18.44,-10.3 -40.53,-19.02 -22.09,-8.78 -38.21,-16.11 -48.35,-21.99 -10.22,-5.88 -18.17,-13.51 -24.01,-22.9 -5.84,-9.39 -8.76,-20.36 -8.76,-32.9 0,-21.99 8.69,-40.23 26.07,-54.71 17.31,-14.48 42.45,-21.69 75.41,-21.69 33.43,0 59.3,7.15 77.6,21.51 18.37,14.36 28.46,33.44 30.24,57.25l-56.11 2.3c-1.39,-12.42 -6.37,-21.93 -14.79,-28.6 -8.36,-6.6 -20.83,-9.94 -37.28,-9.94 -16.19,0 -27.72,2.6 -34.62,7.81 -6.97,5.21 -10.42,11.82 -10.42,19.75 0,7.51 3.19,13.63 9.49,18.54 6.37,4.97 20.43,11.75 42.12,20.42 32.76,12.97 53.59,23.45 62.55,31.5 13.33,11.87 19.96,27.08 19.96,45.74 0,23.02 -9.95,42.65 -29.85,58.95 -19.9,16.3 -47.56,24.48 -83.04,24.48 -24.47,0 -45.7,-3.76 -63.67,-11.27 -17.91,-7.51 -30.58,-17.93 -38.01,-31.26 -7.36,-13.33 -10.81,-28.72 -10.28,-46.04z"/>
   <path class="fil0" d="M-0 384.41l0 -79.6 11.66 0 0 12.5c5.61,-8.34 13.73,-12.5 24.33,-12.5 4.63,0 8.86,0.84 12.72,2.49 3.86,1.65 6.77,3.84 8.69,6.52 1.92,2.68 3.27,5.88 4.03,9.57 0.47,2.41 0.72,6.62 0.72,12.62l0 48.41 -12.99 0 0 -47.91c0,-5.29 -0.49,-9.25 -1.5,-11.86 -1.01,-2.61 -2.81,-4.7 -5.36,-6.27 -2.56,-1.55 -5.59,-2.34 -9.03,-2.34 -5.51,0 -10.26,1.75 -14.27,5.27 -4.01,3.49 -6,10.16 -6,19.95l0 43.16 -12.99 0zm237.25 -26.17l13.44 1.77c-2.09,7.8 -6,13.88 -11.71,18.18 -5.71,4.31 -12.99,6.47 -21.87,6.47 -11.17,0 -20.03,-3.44 -26.57,-10.33 -6.55,-6.86 -9.82,-16.53 -9.82,-28.96 0,-12.84 3.3,-22.83 9.92,-29.92 6.62,-7.11 15.21,-10.65 25.76,-10.65 10.21,0 18.55,3.47 25.02,10.43 6.47,6.96 9.72,16.75 9.72,29.38 0,0.76 -0.03,1.92 -0.07,3.44l-57.06 0c0.49,8.39 2.85,14.84 7.14,19.29 4.26,4.45 9.59,6.69 15.97,6.69 4.75,0 8.81,-1.25 12.15,-3.76 3.37,-2.51 6.03,-6.52 7.99,-12.03zm-42.51 -20.81l42.66 0c-0.57,-6.45 -2.22,-11.27 -4.9,-14.49 -4.11,-5 -9.47,-7.5 -16.04,-7.5 -5.95,0 -10.95,1.99 -15.01,5.98 -4.03,3.99 -6.27,9.33 -6.71,16.02zm370.52 22.73l12.84 -2.07c0.72,5.14 2.73,9.08 6.03,11.84 3.3,2.73 7.92,4.11 13.83,4.11 5.98,0 10.4,-1.21 13.31,-3.64 2.88,-2.41 4.33,-5.26 4.33,-8.54 0,-2.93 -1.3,-5.24 -3.89,-6.91 -1.82,-1.16 -6.25,-2.61 -13.28,-4.4 -9.5,-2.39 -16.07,-4.45 -19.76,-6.2 -3.67,-1.77 -6.45,-4.18 -8.34,-7.28 -1.89,-3.07 -2.85,-6.49 -2.85,-10.23 0,-3.42 0.79,-6.57 2.34,-9.47 1.57,-2.9 3.69,-5.31 6.37,-7.23 2.02,-1.48 4.77,-2.73 8.24,-3.76 3.49,-1.03 7.21,-1.55 11.2,-1.55 6,0 11.27,0.86 15.79,2.61 4.55,1.72 7.9,4.08 10.06,7.04 2.14,2.98 3.64,6.94 4.45,11.91l-12.69 1.77c-0.57,-3.99 -2.24,-7.11 -5,-9.35 -2.76,-2.24 -6.64,-3.35 -11.68,-3.35 -5.93,0 -10.19,0.98 -12.72,2.95 -2.53,1.97 -3.81,4.28 -3.81,6.91 0,1.67 0.52,3.2 1.58,4.55 1.06,1.38 2.71,2.53 4.97,3.44 1.3,0.49 5.09,1.6 11.44,3.32 9.15,2.44 15.55,4.45 19.19,6 3.64,1.55 6.5,3.84 8.56,6.79 2.09,2.98 3.12,6.67 3.12,11.1 0,4.31 -1.25,8.36 -3.79,12.18 -2.53,3.81 -6.17,6.77 -10.92,8.86 -4.77,2.09 -10.16,3.12 -16.17,3.12 -9.94,0 -17.54,-2.07 -22.76,-6.17 -5.21,-4.13 -8.54,-10.24 -9.99,-18.33zm238.53 -5.17l12.7 1.77c-1.4,8.73 -4.95,15.55 -10.68,20.5 -5.73,4.94 -12.79,7.4 -21.13,7.4 -10.46,0 -18.87,-3.42 -25.22,-10.26 -6.37,-6.84 -9.55,-16.63 -9.55,-29.38 0,-8.27 1.38,-15.48 4.11,-21.68 2.73,-6.17 6.89,-10.82 12.5,-13.9 5.59,-3.1 11.66,-4.65 18.26,-4.65 8.29,0 15.11,2.09 20.37,6.3 5.29,4.21 8.68,10.19 10.16,17.91l-12.55 1.92c-1.21,-5.14 -3.32,-9.01 -6.4,-11.61 -3.05,-2.58 -6.74,-3.89 -11.07,-3.89 -6.54,0 -11.86,2.34 -15.97,7.01 -4.08,4.7 -6.13,12.08 -6.13,22.22 0,10.28 1.97,17.74 5.91,22.39 3.96,4.65 9.1,6.99 15.43,6.99 5.12,0 9.37,-1.55 12.77,-4.67 3.42,-3.1 5.59,-7.9 6.5,-14.37zm152.07 -10.26c0,-14.15 3.94,-24.63 11.84,-31.44 6.57,-5.66 14.61,-8.49 24.09,-8.49 10.51,0 19.12,3.44 25.81,10.33 6.67,6.86 10.01,16.39 10.01,28.52 0,9.84 -1.48,17.57 -4.43,23.2 -2.95,5.64 -7.26,10.01 -12.92,13.14 -5.63,3.12 -11.81,4.67 -18.48,4.67 -10.73,0 -19.39,-3.42 -26.01,-10.28 -6.62,-6.86 -9.92,-16.76 -9.92,-29.65zm13.29 0.03c0,9.79 2.14,17.13 6.42,21.97 4.3,4.87 9.69,7.31 16.21,7.31 6.45,0 11.81,-2.44 16.12,-7.33 4.28,-4.9 6.42,-12.35 6.42,-22.37 0,-9.45 -2.17,-16.61 -6.47,-21.45 -4.31,-4.87 -9.67,-7.31 -16.07,-7.31 -6.52,0 -11.91,2.41 -16.21,7.26 -4.28,4.85 -6.42,12.15 -6.42,21.92z"/>
   <polygon class="fil1" points="400.18,157.72 436.33,0.08 496.96,0.08 459.62,163.03 423.23,269.72 397.91,269.8 "/>
   <path class="fil1" d="M381.83 313.29c6.57,-5.66 14.61,-8.49 24.09,-8.49 10.51,0 19.12,3.44 25.81,10.33 6.67,6.86 10.01,16.39 10.01,28.52 0,9.84 -1.48,17.57 -4.43,23.2 -2.95,5.64 -7.26,10.01 -12.92,13.14 -5.64,3.12 -11.81,4.67 -18.48,4.67 -10.73,0 -19.39,-3.42 -26.01,-10.28 -13.94,-14.46 -13.56,-47.74 1.92,-61.09zm1.45 31.47c0,9.79 2.14,17.13 6.42,21.97 4.3,4.87 9.69,7.31 16.21,7.31 6.45,0 11.81,-2.44 16.12,-7.33 4.28,-4.9 6.42,-12.35 6.42,-22.37 0,-9.45 -2.16,-16.61 -6.47,-21.45 -4.31,-4.87 -9.67,-7.31 -16.07,-7.31 -6.52,0 -11.91,2.41 -16.21,7.26 -4.28,4.85 -6.42,12.15 -6.42,21.92z"/>
  </g>
 </g>
</svg>
